<?xml version="1.0" encoding="UTF-8"?>
<svg version="1.1" xmlns="http://www.w3.org/2000/svg" width="263" height="263">
<path d="M0 0 C86.79 0 173.58 0 263 0 C263 86.79 263 173.58 263 263 C176.21 263 89.42 263 0 263 C0 176.21 0 89.42 0 0 Z " fill="#473030" transform="translate(0,0)"/>
<path d="M0 0 C8.6523836 -0.58993525 17.51423774 1.63330535 25 6 C25 6.66 25 7.32 25 8 C26.32064453 8.35964844 26.32064453 8.35964844 27.66796875 8.7265625 C31.3149133 10.12035373 33.44176841 11.75257145 36.3125 14.375 C37.60607422 15.53128906 37.60607422 15.53128906 38.92578125 16.7109375 C41.04848939 19.05351183 41.6272175 19.94688643 42 23 C41.30322266 24.87524414 41.30322266 24.87524414 40.1640625 26.78515625 C39.75929688 27.48060547 39.35453125 28.17605469 38.9375 28.89257812 C38.504375 29.60865234 38.07125 30.32472656 37.625 31.0625 C36.78174672 32.48964229 35.9405168 33.91798255 35.1015625 35.34765625 C34.72338379 35.97679932 34.34520508 36.60594238 33.95556641 37.25415039 C32.85184805 39.14763916 32.85184805 39.14763916 32 42 C32.99 42 33.98 42 35 42 C35 42.66 35 43.32 35 44 C35.57234375 44.26554687 36.1446875 44.53109375 36.734375 44.8046875 C39.1076012 46.05676891 41.12213286 47.4936352 43.25 49.125 C43.95640625 49.66382813 44.6628125 50.20265625 45.390625 50.7578125 C45.92171875 51.16773438 46.4528125 51.57765625 47 52 C46.61299115 55.38632741 46.09134524 56.88984839 43.875 59.5625 C41.80083559 61.72174912 41.80083559 61.72174912 42.06640625 63.76953125 C43.43948269 67.04997747 45.73264893 69.49069796 48.0625 72.125 C53 77.74283765 53 77.74283765 53 80 C53.66 80 54.32 80 55 80 C55 75.71 55 71.42 55 67 C57.289375 67.37125 57.289375 67.37125 59.625 67.75 C63.32330851 68.14399593 65.51998864 68.18973134 68.625 66.0625 C69.40875 65.381875 70.1925 64.70125 71 64 C68.68097512 64.4969339 67.13002505 64.90584393 65.1875 66.3125 C63 67 63 67 61.19140625 66.23828125 C59.42213336 65.22370826 57.70702511 64.1161318 56 63 C57.38188453 59.78956118 58.92421903 57.95063635 61.625 55.75 C62.57246094 54.96882813 62.57246094 54.96882813 63.5390625 54.171875 C64.02117187 53.78515625 64.50328125 53.3984375 65 53 C64.27977475 48.0613126 60.87729726 45.0834921 57.71484375 41.4375 C56 39 56 39 56 35 C56.99047852 33.09643555 56.99047852 33.09643555 58.37890625 31.13671875 C58.88873047 30.41419922 59.39855469 29.69167969 59.92382812 28.94726562 C60.46458984 28.20154297 61.00535156 27.45582031 61.5625 26.6875 C62.07619141 25.95337891 62.58988281 25.21925781 63.11914062 24.46289062 C72.06383846 11.94031366 83.75298062 3.34703525 99 0 C112.89830024 -1.11537915 125.68121679 0.12990937 138 7 C138 7.66 138 8.32 138 9 C138.72574219 9.25265625 139.45148438 9.5053125 140.19921875 9.765625 C151.68772633 14.82890031 157.51095869 26.21372137 162.3828125 37.0859375 C168.44796145 53.58483918 165.78827465 72.87487212 158.62084961 88.58251953 C155.2721479 95.47519348 151.01446531 101.24936851 146 107 C145.16542299 108.06152339 144.33190919 109.12388456 143.5 110.1875 C140.85230996 113.16615129 138.00232125 115.63821277 134.97265625 118.21484375 C132.60907288 120.3537697 130.65878152 122.69732081 128.64086914 125.15600586 C126.97130481 127.0322474 125.22342331 128.62203288 123.3125 130.25 C119.09924357 133.88942169 115.04139045 137.67172975 111 141.5 C106.37844327 145.87784182 101.70454192 150.16522293 96.89746094 154.33886719 C94.0894944 156.79710244 91.35614976 159.33211687 88.625 161.875 C84.75307778 165.46488019 80.86824641 169.03685467 76.9375 172.5625 C73.1713809 175.94093036 69.42194932 179.33664566 65.6875 182.75 C64.72199219 183.63171875 63.75648438 184.5134375 62.76171875 185.421875 C60.11195292 187.89548949 57.54636942 190.42116321 55 193 C51.74792908 191.58261511 49.68638933 189.87473588 47.25 187.3125 C44.03773001 183.94501528 40.62605282 180.90429017 37.11425781 177.8581543 C33.7507165 174.90204426 30.50359336 171.82599987 27.25 168.75 C21.5131955 163.34889148 15.7435355 157.98969752 9.92578125 152.67578125 C6.21631786 149.28328135 2.52286832 145.87367437 -1.16503906 142.45776367 C-3.66613847 140.14339626 -6.17552179 137.84291431 -8.71484375 135.5703125 C-45.61953055 102.42492665 -45.61953055 102.42492665 -54 79 C-54.52787109 77.56140625 -54.52787109 77.56140625 -55.06640625 76.09375 C-59.62642481 60.98272617 -57.89927991 43.27957165 -50.875 29.3125 C-43.10017011 15.80026944 -31.52790601 5.6667042 -16.4375 1.25 C-12.95261448 0.89257584 -9.50319283 0.98577384 -6 1 C-5.04027826 3.54115002 -4.08218506 6.08289457 -3.125 8.625 C-2.85558594 9.33785156 -2.58617187 10.05070312 -2.30859375 10.78515625 C2.61114733 23.86446789 2.61114733 23.86446789 1 29 C-0.52561486 31.32553184 -2.11840447 33.55397444 -3.8203125 35.75390625 C-5.23048578 37.95854506 -5.23048578 37.95854506 -4.8125 40.5703125 C-4.02253544 43.26266432 -4.02253544 43.26266432 -1.875 46.3125 C0.66679783 50.5396203 0.07132239 53.25557228 -1 58 C-2.0625 61 -2.0625 61 -3 63 C-2.34 63 -1.68 63 -1 63 C-0.855625 62.05125 -0.71125 61.1025 -0.5625 60.125 C0 57 0 57 1 55 C1.35773693 51.15432803 1.03135244 49.07022946 -0.5625 45.5 C-2.20443664 41.50224124 -2.43275098 40.04541453 -1 36 C0.83383709 33.49747093 2.8441329 31.22838862 5 29 C5.54140625 29.2784375 6.0828125 29.556875 6.640625 29.84375 C9.04161739 31.06077286 9.04161739 31.06077286 11.796875 32.09375 C15.27924799 33.75202285 17.46835863 35.05712755 20 38 C21.41363857 43.86707996 20.62175116 50.06510256 20 56 C20.66 56 21.32 56 22 56 C23.68684473 45.21771195 23.68684473 45.21771195 20.77246094 35.16699219 C17.30980749 31.73032489 13.19872251 29.42616095 9 27 C6.2115211 24.70300331 5.35750558 22.67163027 4.39453125 19.21875 C4.13349609 18.29449219 3.87246094 17.37023437 3.60351562 16.41796875 C3.34248047 15.45503906 3.08144531 14.49210937 2.8125 13.5 C2.53986328 12.53707031 2.26722656 11.57414062 1.98632812 10.58203125 C0 3.44319784 0 3.44319784 0 0 Z " fill="#030101" transform="translate(80,44)"/>
<path d="M0 0 C0.9168457 0.00797607 1.83369141 0.01595215 2.77832031 0.02416992 C9.7312756 0.16989422 16.02549239 1.11405758 22.625 3.375 C23.5221875 3.66117188 24.419375 3.94734375 25.34375 4.2421875 C27.44720869 4.92386393 29.53797973 5.6445429 31.625 6.375 C31.625 7.035 31.625 7.695 31.625 8.375 C32.17285156 8.45234375 32.72070312 8.5296875 33.28515625 8.609375 C36.48203596 9.65543247 38.48999186 11.46994464 41.0625 13.625 C41.98933594 14.39328125 42.91617188 15.1615625 43.87109375 15.953125 C46.58713863 18.34170348 49.20404836 20.68554281 51.625 23.375 C51.5625 26.3125 51.5625 26.3125 50.625 29.375 C50.33625 30.468125 50.0475 31.56125 49.75 32.6875 C49.193125 34.0178125 49.193125 34.0178125 48.625 35.375 C47.14 35.87 47.14 35.87 45.625 36.375 C44.81936362 38.48084438 44.81936362 38.48084438 44.4375 40.9375 C44.19966797 42.17693359 44.19966797 42.17693359 43.95703125 43.44140625 C43.84746094 44.07949219 43.73789063 44.71757813 43.625 45.375 C44.32367188 45.92929688 45.02234375 46.48359375 45.7421875 47.0546875 C46.65226562 47.77914062 47.56234375 48.50359375 48.5 49.25 C49.40492187 49.96929687 50.30984375 50.68859375 51.2421875 51.4296875 C54.84871472 54.37403267 55.90173034 55.79429218 56.625 60.375 C55.820625 60.931875 55.01625 61.48875 54.1875 62.0625 C51.38944338 64.58757549 50.82470796 65.68040269 50.625 69.375 C50.955 69.705 51.285 70.035 51.625 70.375 C52.12 68.89 52.12 68.89 52.625 67.375 C54.1484375 65.9453125 54.1484375 65.9453125 56 64.5 C58.95251872 62.07493329 60.89440018 59.83619963 62.625 56.375 C62.15449219 55.84390625 61.68398437 55.3128125 61.19921875 54.765625 C60.26529297 53.70601562 60.26529297 53.70601562 59.3125 52.625 C58.69761719 51.92890625 58.08273438 51.2328125 57.44921875 50.515625 C56.84722656 49.80921875 56.24523437 49.1028125 55.625 48.375 C55.05394531 47.70984375 54.48289062 47.0446875 53.89453125 46.359375 C52.625 44.375 52.625 44.375 52.625 40.375 C53.285 40.375 53.945 40.375 54.625 40.375 C55.285 38.065 55.945 35.755 56.625 33.375 C57.285 33.375 57.945 33.375 58.625 33.375 C58.625 32.715 58.625 32.055 58.625 31.375 C59.16125 30.859375 59.6975 30.34375 60.25 29.8125 C62.38310929 27.62325626 63.72082907 25.70093541 65.3125 23.125 C73.28893387 11.02145607 86.6057015 3.42952664 100.625 0.375 C104.36607259 -0.03790781 108.05108458 -0.10251844 111.8125 -0.0625 C112.81627686 -0.05492676 113.82005371 -0.04735352 114.85424805 -0.03955078 C132.04900526 0.33829536 145.53644834 6.09041777 157.625 18.375 C172.08534488 34.50483407 174.51944388 51.76404522 173.76660156 72.83032227 C173.40915037 79.25396674 172.40690482 84.49020135 169.625 90.375 C169.191875 91.468125 168.75875 92.56125 168.3125 93.6875 C161.07310995 110.29767413 147.33045022 126.47060138 133.11328125 137.4375 C128.05329163 141.37746052 123.18654588 145.46210629 119.125 150.4375 C117.03267505 152.89598182 115.35610634 154.42515368 112.8125 156.3125 C107.35561201 160.40516599 102.49349442 165.08345755 97.5612793 169.78100586 C93.609248 173.5402074 89.59127191 177.19351435 85.47094727 180.76757812 C82.98633656 182.93113809 80.55475539 185.15016374 78.125 187.375 C74.88633994 190.33145316 71.63024196 193.25765895 68.3125 196.125 C64.92393131 199.06641736 61.75813226 202.16353944 58.625 205.375 C55.66174056 204.02391034 53.41714835 202.48793352 51 200.3125 C50.30648437 199.69246094 49.61296875 199.07242188 48.8984375 198.43359375 C48.14820312 197.75425781 47.39796875 197.07492188 46.625 196.375 C45.81289062 195.64410156 45.00078125 194.91320312 44.1640625 194.16015625 C42.46667662 192.63250895 40.77137242 191.1025456 39.078125 189.5703125 C36.87101396 187.59515899 34.6302975 185.66958528 32.375 183.75 C29.91638821 181.61952963 27.79354707 179.4662468 25.75 176.9375 C22.6476837 173.16919733 18.98747943 170.33604099 15.14453125 167.3515625 C12.16285846 165.01245175 9.3270347 162.54109524 6.49609375 160.0234375 C4.69334349 158.43521076 2.8511849 156.90617701 1 155.375 C-1.32517858 153.39990449 -3.27181919 151.37179529 -5.1875 149 C-7.62385288 146.03598781 -10.2761257 143.78128741 -13.3125 141.4375 C-17.17219499 138.43806392 -20.30080327 135.37426571 -23.41015625 131.62109375 C-25.3829193 129.36594712 -27.47831333 127.28234939 -29.63037109 125.19921875 C-38.60175503 116.48946502 -46.11208202 107.43261268 -51.8125 96.25 C-52.13057617 95.62963867 -52.44865234 95.00927734 -52.77636719 94.37011719 C-57.5502657 84.48830143 -58.90850304 74.90517721 -58.8125 64 C-58.80565186 62.80769775 -58.79880371 61.61539551 -58.79174805 60.38696289 C-58.63869126 52.02157832 -57.92151519 45.03967262 -54.375 37.375 C-54.024375 36.51777344 -53.67375 35.66054687 -53.3125 34.77734375 C-46.99163201 20.57733823 -34.81346394 9.05011846 -20.375 3.375 C-13.48888901 0.87602058 -7.31249817 -0.11573835 0 0 Z M3.625 5.375 C4.04903216 7.38915277 4.48291517 9.40146183 4.94921875 11.40625 C5.44992998 13.60590628 5.90372389 15.81635671 6.33203125 18.03125 C8.29682231 27.00289869 10.86446196 32.08866149 18.625 37.375 C19.23142334 37.69654053 19.83784668 38.01808105 20.46264648 38.34936523 C22.51667101 39.54609397 24.04645431 40.59058057 25.625 42.375 C26.4744583 45.68681212 26.29261197 48.79650935 26.0625 52.1875 C26.03091797 53.07115234 25.99933594 53.95480469 25.96679688 54.86523438 C25.88463742 57.0365914 25.75908489 59.20623013 25.625 61.375 C24.965 61.375 24.305 61.375 23.625 61.375 C23.83382812 59.56515625 23.83382812 59.56515625 24.046875 57.71875 C25.02074361 48.40779848 25.02074361 48.40779848 21.09375 40.3984375 C16.4860524 37.32291119 13.23058378 35.375 7.625 35.375 C5.04619797 37.65825393 3.22513258 40.33419823 1.625 43.375 C1.625 46.76575861 2.37555462 48.7880697 3.6875 51.875 C5.56591235 56.8840996 4.68492263 60.61142892 2.625 65.375 C2.625 66.365 2.625 67.355 2.625 68.375 C1.965 68.375 1.305 68.375 0.625 68.375 C1.140625 67.199375 1.65625 66.02375 2.1875 64.8125 C3.74309001 60.60499941 3.82642731 57.78023347 2.625 53.375 C1.94880922 52.12786214 1.23934169 50.89826863 0.5 49.6875 C-1.375 46.375 -1.375 46.375 -1.1875 44.46875 C0.15092454 41.01973292 2.35286753 38.13806756 4.4453125 35.10546875 C7.07582783 29.01695811 3.78864446 22.44618411 1.625 16.5625 C1.35171875 15.80001953 1.0784375 15.03753906 0.796875 14.25195312 C-0.63483594 10.24904686 -0.63483594 10.24904686 -2.375 6.375 C-14.82090407 5.68356088 -25.18838805 10.68229794 -34.85546875 18.33984375 C-43.68900005 26.5043985 -49.83437429 37.63772915 -52.375 49.375 C-52.64957031 50.49648437 -52.64957031 50.49648437 -52.9296875 51.640625 C-56.09682654 71.08796996 -50.48662327 90.33915062 -39.375 106.375 C-35.96015094 110.63255583 -32.2078129 114.499516 -28.375 118.375 C-27.54323242 119.22046387 -26.71146484 120.06592773 -25.85449219 120.93701172 C-22.97242097 123.86080109 -20.08289202 126.77691301 -17.1875 129.6875 C-16.71432343 130.16362732 -16.24114685 130.63975464 -15.75363159 131.13031006 C-10.71879405 136.18639532 -5.64404103 141.12624927 -0.22729492 145.7722168 C2.88857433 148.46836569 5.87483854 151.30155488 8.875 154.125 C14.44100183 159.34165377 20.03799318 164.52034718 25.66796875 169.66796875 C28.80833401 172.5399088 31.93599411 175.42548904 35.0625 178.3125 C35.59625244 178.80427734 36.13000488 179.29605469 36.67993164 179.80273438 C39.53135874 182.43178872 42.37075067 185.07255453 45.1953125 187.73046875 C45.77998291 188.27775635 46.36465332 188.82504395 46.96704102 189.38891602 C48.08565464 190.43641585 49.20092419 191.48750224 50.31225586 192.54272461 C52.92249172 194.98030057 55.29756744 197.01849272 58.625 198.375 C59.285 197.715 59.945 197.055 60.625 196.375 C61.08261719 195.91867188 61.54023438 195.46234375 62.01171875 194.9921875 C63.1652876 193.83582551 64.31309309 192.67370256 65.45703125 191.5078125 C69.27549506 187.63662829 73.18011771 183.95993801 77.30078125 180.4140625 C80.24910422 177.82746655 83.12414606 175.16663286 86 172.5 C90.66154301 168.17982249 95.35606811 163.90131133 100.08984375 159.66015625 C102.99413266 157.04226871 105.87270775 154.39746797 108.75 151.75 C111.98711029 148.77275181 115.2363792 145.81546979 118.5625 142.9375 C130.46347025 132.66163113 130.46347025 132.66163113 141.0625 121.09375 C142.625 119.375 142.625 119.375 145.0078125 117.5234375 C158.76381621 106.23119565 167.1374706 87.40511845 168.86425781 69.95751953 C170.00478098 53.54099473 166.60595628 38.83679075 156.625 25.375 C152.13830112 20.57233641 147.90813067 16.54390988 141.625 14.375 C141.625 13.715 141.625 13.055 141.625 12.375 C128.63790473 5.13219687 113.64216906 3.13299404 99.0546875 6.1015625 C96.12830767 7.02213723 93.40693024 8.08581281 90.625 9.375 C89.84125 9.725625 89.0575 10.07625 88.25 10.4375 C74.74768942 17.18865529 66.91148112 29.28549722 58.625 41.375 C60.75003426 45.85598614 63.7985861 49.21015321 67.04296875 52.9375 C68.625 55.375 68.625 55.375 68.6171875 57.4609375 C67.32910514 59.94582079 65.74213653 61.25475312 63.5625 63 C62.21587828 64.08392398 60.89411978 65.20128102 59.625 66.375 C59.625 67.035 59.625 67.695 59.625 68.375 C63.01607557 70.60192193 63.01607557 70.60192193 66.625 72.375 C68.85877831 71.79981768 68.85877831 71.79981768 70.625 70.375 C71.9492287 70.00715869 73.28113912 69.66297019 74.625 69.375 C71.67205002 71.93940393 69.98163003 73.35279326 66 73.41796875 C63.53117612 73.15495484 61.07577988 72.77242376 58.625 72.375 C58.625 76.665 58.625 80.955 58.625 85.375 C57.965 85.375 57.305 85.375 56.625 85.375 C56.37878906 84.818125 56.13257813 84.26125 55.87890625 83.6875 C53.88434836 80.00906302 51.09090717 77.00182659 48.40234375 73.8125 C46.72992848 71.51890192 45.77230911 70.19744251 45.625 67.375 C46.8625 65.9209375 46.8625 65.9209375 48.125 64.4375 C50.90147414 61.71680943 50.90147414 61.71680943 50.55859375 58.921875 C49.37853784 55.70264299 47.93285246 54.57868685 45.1875 52.5625 C43.98287109 51.65564453 43.98287109 51.65564453 42.75390625 50.73046875 C40.76445437 49.19597474 40.76445437 49.19597474 38.625 49.375 C38.625 48.715 38.625 48.055 38.625 47.375 C37.635 47.375 36.645 47.375 35.625 47.375 C36.91421216 44.76959218 38.20625596 42.16565627 39.5 39.5625 C40.04720703 38.45551758 40.04720703 38.45551758 40.60546875 37.32617188 C41.13720703 36.25786133 41.13720703 36.25786133 41.6796875 35.16796875 C42.00437012 34.5133667 42.32905273 33.85876465 42.66357422 33.18432617 C43.625 31.375 43.625 31.375 45.625 28.375 C45.1658046 23.34381564 41.26735784 20.47136337 37.625 17.375 C33.47200178 14.41646474 33.47200178 14.41646474 28.625 13.375 C28.625 12.715 28.625 12.055 28.625 11.375 C21.13923774 7.00830535 12.2773836 4.78506475 3.625 5.375 Z " fill="#E7383E" transform="translate(76.375,38.625)"/>
<path d="M0 0 C0.928125 -0.00322266 1.85625 -0.00644531 2.8125 -0.00976562 C12.26459812 0.06471366 18.07909282 3.38457542 25.375 9.3125 C30.83142337 15.14784166 32.76177654 21.29258022 32.55859375 29.12109375 C32.31845653 33.29539397 32.05096029 37.45944356 31.6875 41.625 C31.63432617 42.40198242 31.58115234 43.17896484 31.52636719 43.97949219 C31.12059857 48.04244807 30.65164172 49.95343421 28.09375 53.2734375 C25.41865284 55.27976037 23.81778427 56.09055034 20.5625 56.625 C19.77230469 56.76550781 18.98210937 56.90601563 18.16796875 57.05078125 C17.57628906 57.13714844 16.98460937 57.22351563 16.375 57.3125 C16.33761719 58.08335937 16.30023438 58.85421875 16.26171875 59.6484375 C16.19597656 60.65132812 16.13023437 61.65421875 16.0625 62.6875 C15.97548828 64.18410156 15.97548828 64.18410156 15.88671875 65.7109375 C15.63341797 66.99871094 15.63341797 66.99871094 15.375 68.3125 C12.14708445 70.4644437 11.09099191 70.51336443 7.375 70.3125 C7.25125 69.673125 7.1275 69.03375 7 68.375 C6.79375 67.694375 6.5875 67.01375 6.375 66.3125 C5.385 65.8175 5.385 65.8175 4.375 65.3125 C4.375 66.9625 4.375 68.6125 4.375 70.3125 C2.065 70.3125 -0.245 70.3125 -2.625 70.3125 C-2.74875 69.673125 -2.8725 69.03375 -3 68.375 C-3.20625 67.694375 -3.4125 67.01375 -3.625 66.3125 C-4.285 65.9825 -4.945 65.6525 -5.625 65.3125 C-5.625 66.9625 -5.625 68.6125 -5.625 70.3125 C-8.5 70.4375 -8.5 70.4375 -11.625 70.3125 C-13.625 68.3125 -13.625 68.3125 -13.875 64.4375 C-14.24563127 60.84822876 -14.41588265 60.49730138 -17.3125 57.9375 C-20.53813214 56.25135511 -20.53813214 56.25135511 -23.8125 55.3125 C-27.20892802 54.10488115 -27.86326348 53.42752574 -29.625 50.3125 C-30.27900592 47.4803569 -30.5547025 44.64210047 -30.8125 41.75 C-30.88927979 40.94369141 -30.96605957 40.13738281 -31.04516602 39.30664062 C-31.2560977 36.97634777 -31.4431081 34.64521136 -31.625 32.3125 C-31.72296875 31.23097656 -31.8209375 30.14945313 -31.921875 29.03515625 C-32.27878064 22.12506643 -30.65336033 16.95781238 -26.625 11.3125 C-18.64627342 2.54335751 -11.60499496 -0.20316868 0 0 Z " fill="#F6F7F6" transform="translate(133.625,131.6875)"/>
<path d="M0 0 C2.09847116 3.60389612 2.75338296 7.25988808 3.625 11.3125 C5.33597168 18.33034112 7.85435019 22.17138154 14 26 C14.76957031 26.35449219 15.53914063 26.70898438 16.33203125 27.07421875 C19.08071745 28.52317592 20.36360916 29.31578397 22 32 C22.73200011 38.31295524 21.79433167 44.73222668 21 51 C20.34 51 19.68 51 19 51 C19 45.06 19 39.12 19 33 C17.68 32.34 16.36 31.68 15 31 C13.40300403 29.97940324 11.81981317 28.93693244 10.25 27.875 C9.45078125 27.33617188 8.6515625 26.79734375 7.828125 26.2421875 C7.22484375 25.83226563 6.6215625 25.42234375 6 25 C1.8429146 26.85537285 0.122774 28.91169453 -2 33 C-1.86774889 36.24015231 -1.20028063 38.52875147 0.0625 41.5 C2.35639013 47.61704036 0.37004336 52.27239522 -2 58 C-2.66 58 -3.32 58 -4 58 C-3.649375 56.824375 -3.29875 55.64875 -2.9375 54.4375 C-1.78168877 49.71447281 -1.61267412 45.56872057 -4 41.1484375 C-4.556875 40.23964844 -4.556875 40.23964844 -5.125 39.3125 C-7 36 -7 36 -6.8125 34.09375 C-5.81555594 31.52470185 -4.41936251 29.46812836 -2.875 27.1875 C-0.87450789 23.89652258 -0.00853182 22.46925005 0.0625 18.5625 C-0.288125 17.386875 -0.63875 16.21125 -1 15 C-1.52162739 13.02104247 -2.04241234 11.04186275 -2.5625 9.0625 C-3.03751074 7.37382545 -3.51526322 5.68590842 -4 4 C-2.68 2.68 -1.36 1.36 0 0 Z " fill="#DB2F35" transform="translate(81,49)"/>
<path d="M0 0 C3.75744212 1.51488423 3.75744212 1.51488423 5 4 C5.36744365 8.4828125 5.51708331 10.96583338 3.5 15 C0.71221093 17.23023126 -1.29495702 17.90663331 -4.890625 17.68359375 C-9.21981705 16.28061485 -11.81803741 12.85665362 -14 9 C-14.20721753 5.33915699 -13.76308291 3.95385364 -11.5 1.125 C-7.74994153 -0.56252631 -4.04948172 -0.54896143 0 0 Z " fill="#101010" transform="translate(153,163)"/>
<path d="M0 0 C3.41926062 0.15496649 5.13026187 0.50263094 8.25 2.0625 C10.125 4.5 10.125 4.5 10.6875 8 C10.05391223 11.94232388 9.30075561 13.16488558 6.125 15.5 C5.465 15.5 4.805 15.5 4.125 15.5 C4.125 16.16 4.125 16.82 4.125 17.5 C-3.22536018 17.98199083 -3.22536018 17.98199083 -5.8125 16.0625 C-7.35482168 12.342783 -8.20189944 8.53649738 -7.875 4.5 C-5.85397678 0.67069284 -4.26442091 -0.05184706 0 0 Z " fill="#0D0D0E" transform="translate(117.875,162.5)"/>
<path d="M0 0 C0.99 0.99 1.98 1.98 3 3 C3.66 2.34 4.32 1.68 5 1 C5 1.99 5 2.98 5 4 C4.154375 4.804375 3.30875 5.60875 2.4375 6.4375 C1.2309375 7.7059375 1.2309375 7.7059375 0 9 C0.04497842 11.27523089 0.04497842 11.27523089 1 13 C1.33 12.01 1.66 11.02 2 10 C3.55859375 8.46484375 3.55859375 8.46484375 5.4375 6.9375 C7.38553905 5.33921326 9.21573944 3.78426056 11 2 C11.25 7.625 11.25 7.625 9 11 C9.556875 11.12375 10.11375 11.2475 10.6875 11.375 C13 12 13 12 15.375 13.3125 C18.22011349 14.38350954 18.22011349 14.38350954 21.3125 12.125 C22.199375 11.42375 23.08625 10.7225 24 10 C24 10.99 24 11.98 24 13 C21.625 15.3125 21.625 15.3125 18 17 C14.46503205 16.74224192 11.45053748 15.9325777 8 15 C8 19.29 8 23.58 8 28 C7.34 28 6.68 28 6 28 C4.25546502 25.90773676 2.6156781 23.81308978 1 21.625 C-2.29535337 17.14076607 -2.29535337 17.14076607 -6 13 C-5.73253513 9.12175934 -3.34539386 6.93174232 -1 4 C-0.22166466 1.81785432 -0.22166466 1.81785432 0 0 Z " fill="#E33D3E" transform="translate(127,96)"/>
<path d="M0 0 C2.0625 0.4375 2.0625 0.4375 4 1 C3.505 1.969375 3.01 2.93875 2.5 3.9375 C1.80649995 5.86426298 1.80649995 5.86426298 2 8 C3.76019021 10.6359284 5.74520719 12.74520719 7.984375 14.984375 C10 17 10 17 12 20 C12 22.45877805 11.36983705 23.62261526 9.66015625 25.3671875 C5.46292373 29 5.46292373 29 3 29 C3.474375 27.845 3.94875 26.69 4.4375 25.5 C5.10503777 23.30556477 5.10503777 23.30556477 5 21 C3.10042814 17.87526049 0.59592939 15.5477575 -2 13 C-4.72487926 9.88935131 -5 9.37329127 -5 5 C-4.34 5 -3.68 5 -3 5 C-2.5359375 4.0409375 -2.5359375 4.0409375 -2.0625 3.0625 C-1 1 -1 1 0 0 Z " fill="#ED3D41" transform="translate(134,74)"/>
<path d="M0 0 C2.0625 2.1875 2.0625 2.1875 4 5 C3.62109375 7.67578125 3.62109375 7.67578125 3 10 C3.69867188 10.55429688 4.39734375 11.10859375 5.1171875 11.6796875 C6.02726562 12.40414062 6.93734375 13.12859375 7.875 13.875 C9.23238281 14.95394531 9.23238281 14.95394531 10.6171875 16.0546875 C13 18 13 18 15 20 C14.625 22.625 14.625 22.625 14 25 C13.01 25 12.02 25 11 25 C11 24.01 11 23.02 11 22 C10.43796875 21.731875 9.8759375 21.46375 9.296875 21.1875 C6.84449354 19.9196021 4.56072317 18.51027658 2.25 17 C1.45078125 16.484375 0.6515625 15.96875 -0.171875 15.4375 C-0.77515625 14.963125 -1.3784375 14.48875 -2 14 C-2 13.34 -2 12.68 -2 12 C-2.99 12 -3.98 12 -5 12 C-4.42365861 7.24518354 -2.44931479 4.02951788 0 0 Z " fill="#DF2E37" transform="translate(117,74)"/>
<path d="M0 0 C0.66 0.33 1.32 0.66 2 1 C-0.00195312 3.1484375 -0.00195312 3.1484375 -2.00390625 5.296875 C-3.23892732 6.99606115 -3.23892732 6.99606115 -2.65234375 9.203125 C-2.43707031 9.79609375 -2.22179687 10.3890625 -2 11 C-3.62255228 12.48185125 -5.24811888 13.96040256 -6.875 15.4375 C-7.77992188 16.26121094 -8.68484375 17.08492187 -9.6171875 17.93359375 C-12 20 -12 20 -14 21 C-14.33 20.34 -14.66 19.68 -15 19 C-16.65 19.33 -18.3 19.66 -20 20 C-14.36878657 12.92076026 -7.68059419 7.05936583 -1 1 C-0.67 0.67 -0.34 0.34 0 0 Z " fill="#E73633" transform="translate(181,193)"/>
<path d="M0 0 C1.125 3.75 1.125 3.75 0 6 C0.66 6.33 1.32 6.66 2 7 C1.62746094 7.43570313 1.25492188 7.87140625 0.87109375 8.3203125 C-2.30476916 12.24159479 -2.30476916 12.24159479 -2.9375 17.125 C-2.05677701 19.9665837 -2.05677701 19.9665837 -0.9375 22.5 C1.35639013 28.61704036 -0.62995664 33.27239522 -3 39 C-3.66 39 -4.32 39 -5 39 C-4.649375 37.824375 -4.29875 36.64875 -3.9375 35.4375 C-2.78168877 30.71447281 -2.61267412 26.56872057 -5 22.1484375 C-5.37125 21.54257813 -5.7425 20.93671875 -6.125 20.3125 C-8 17 -8 17 -7.8046875 15.109375 C-6.81106318 12.50472873 -5.48135509 10.29840968 -4 7.9375 C-2.31203653 5.23919302 -1.00950639 3.02851916 0 0 Z " fill="#D73538" transform="translate(82,68)"/>
<path d="M0 0 C-1.40131402 4.6960702 -3.70385811 6.80056111 -7.5 9.8125 C-8.4796875 10.60269531 -9.459375 11.39289063 -10.46875 12.20703125 C-13 14 -13 14 -15 14 C-15.33 13.01 -15.66 12.02 -16 11 C-14.85546875 9.02734375 -14.85546875 9.02734375 -13.1875 6.9375 C-12.37345703 5.89916016 -12.37345703 5.89916016 -11.54296875 4.83984375 C-8.22196216 0.87985867 -5.24786165 -1.74928722 0 0 Z " fill="#EC4345" transform="translate(167,212)"/>
<path d="M0 0 C4.8828125 2.63671875 4.8828125 2.63671875 7 4 C8.0725 4.6703125 9.145 5.340625 10.25 6.03125 C12.25349564 7.73312047 12.92401314 8.57016028 13.38623047 11.18481445 C13.36627734 13.76209317 13.16525425 16.25177006 12.875 18.8125 C12.80023438 19.69615234 12.72546875 20.57980469 12.6484375 21.49023438 C12.46040454 23.66436544 12.24359343 25.83150963 12 28 C11.34 28 10.68 28 10 28 C10 22.06 10 16.12 10 10 C8.68 9.34 7.36 8.68 6 8 C4.57356548 7.14101571 3.15671114 6.26591706 1.75 5.375 C1.04359375 4.92898437 0.3371875 4.48296875 -0.390625 4.0234375 C-0.92171875 3.68570313 -1.4528125 3.34796875 -2 3 C-1.34 2.67 -0.68 2.34 0 2 C0 1.34 0 0.68 0 0 Z " fill="#D63436" transform="translate(90,72)"/>
<path d="M0 0 C1.10853086 3.32559258 1.31165383 5.51120848 1 9 C-0.53125 11.7734375 -0.53125 11.7734375 -2.5 14.375 C-3.1496875 15.24898437 -3.799375 16.12296875 -4.46875 17.0234375 C-4.9740625 17.67570312 -5.479375 18.32796875 -6 19 C-7.98 18.67 -9.96 18.34 -12 18 C-12 17.01 -12 16.02 -12 15 C-11.34 15 -10.68 15 -10 15 C-10 14.34 -10 13.68 -10 13 C-9.46375 12.484375 -8.9275 11.96875 -8.375 11.4375 C-5.0219346 7.99619604 -2.58586164 4.03394416 0 0 Z " fill="#DC2F32" transform="translate(145,57)"/>
<path d="M0 0 C1.8125 0.1875 1.8125 0.1875 4 1 C6.89320977 4.71984113 7 6.06576127 7 11 C3.37 11 -0.26 11 -4 11 C-3.1302743 6.65137149 -2.0525056 3.83729307 0 0 Z " fill="#1F1E1E" transform="translate(132,178)"/>
<path d="M0 0 C0.99 0.99 1.98 1.98 3 3 C3.66 2.34 4.32 1.68 5 1 C5 1.99 5 2.98 5 4 C4.154375 4.804375 3.30875 5.60875 2.4375 6.4375 C-0.21917237 8.66001185 -0.21917237 8.66001185 -0.0625 11.0625 C0.9510201 13.14873984 0.9510201 13.14873984 3 14.875 C5.49147225 17.52218926 5.67660307 19.4426338 6 23 C3.38472619 20.63379989 1.73559438 18.057952 0 15 C-0.66 15.66 -1.32 16.32 -2 17 C-4.0625 15.25 -4.0625 15.25 -6 13 C-6 9.1609734 -3.29627412 6.87034265 -1 4 C-0.22166466 1.81785432 -0.22166466 1.81785432 0 0 Z " fill="#D72A34" transform="translate(127,96)"/>
<path d="M0 0 C1.27609323 0.90933009 2.54565553 1.82782853 3.8125 2.75 C4.87404297 3.51570312 4.87404297 3.51570312 5.95703125 4.296875 C8.02977691 6.02482358 9.47375854 7.78526476 11 10 C9.68 11.32 8.36 12.64 7 14 C3.37 10.7 -0.26 7.4 -4 4 C-2.68 2.68 -1.36 1.36 0 0 Z " fill="#DE2E3A" transform="translate(117,222)"/>
<path d="M0 0 C0.33 1.32 0.66 2.64 1 4 C-1.31 5.98 -3.62 7.96 -6 10 C-7.32 9.34 -8.64 8.68 -10 8 C-9.875 6.25 -9.875 6.25 -9 4 C-3.88888889 0 -3.88888889 0 0 0 Z " fill="#EA4147" transform="translate(47,49)"/>
<path d="M0 0 C1.29608947 0.93137592 2.58671632 1.8703566 3.875 2.8125 C4.95394531 3.59560547 4.95394531 3.59560547 6.0546875 4.39453125 C8 6 8 6 10 9 C8.35 8.67 6.7 8.34 5 8 C4.67 8.99 4.34 9.98 4 11 C1.36 8.69 -1.28 6.38 -4 4 C-2.68 2.68 -1.36 1.36 0 0 Z " fill="#E42E36" transform="translate(115,51)"/>
<path d="M0 0 C0 0.66 0 1.32 0 2 C0.66 2.33 1.32 2.66 2 3 C0.71451591 4.33929505 -0.57858155 5.67128643 -1.875 7 C-2.59429687 7.7425 -3.31359375 8.485 -4.0546875 9.25 C-6 11 -6 11 -8 11 C-8.671875 9.234375 -8.671875 9.234375 -9 7 C-7.890625 5.078125 -7.890625 5.078125 -6.25 3.25 C-5.71890625 2.63640625 -5.1878125 2.0228125 -4.640625 1.390625 C-3 0 -3 0 0 0 Z " fill="#F64647" transform="translate(186,192)"/>
<path d="M0 0 C0.66 0.33 1.32 0.66 2 1 C1.154375 1.9075 0.30875 2.815 -0.5625 3.75 C-1.96513823 5.34360211 -1.96513823 5.34360211 -3 7 C-2.87436418 9.26424351 -2.87436418 9.26424351 -2 11 C-2.33 11.33 -2.66 11.66 -3 12 C-4.093125 11.938125 -5.18625 11.87625 -6.3125 11.8125 C-10.0490901 11.63634181 -10.0490901 11.63634181 -12.4375 14 C-12.953125 14.66 -13.46875 15.32 -14 16 C-14.66 15.67 -15.32 15.34 -16 15 C-10.72 10.05 -5.44 5.1 0 0 Z " fill="#CF2B2D" transform="translate(181,193)"/>
<path d="M0 0 C2.60608273 2.5162178 4.89381685 5.05134359 7 8 C7.33 5.36 7.66 2.72 8 0 C9.32 0.33 10.64 0.66 12 1 C11.01 1 10.02 1 9 1 C9 5.29 9 9.58 9 14 C8.34 14 7.68 14 7 14 C5.2734375 12.20703125 5.2734375 12.20703125 3.375 9.8125 C2.74335938 9.03519531 2.11171875 8.25789063 1.4609375 7.45703125 C-0.1813258 4.69504297 -0.30263903 3.15529211 0 0 Z " fill="#CB2F38" transform="translate(126,110)"/>
<path d="M0 0 C3.39616051 5.09424076 5.75973549 9.79549352 5 16 C4.1333292 18.74445754 3.10276614 21.33498183 2 24 C1.34 24 0.68 24 0 24 C0.350625 22.824375 0.70125 21.64875 1.0625 20.4375 C2.69578967 13.82267683 1.29962209 8.88193503 -2 3 C-1.34 3 -0.68 3 0 3 C0 2.01 0 1.02 0 0 Z " fill="#B32930" transform="translate(77,83)"/>
<path d="M0 0 C0.66 0 1.32 0 2 0 C7 5.35714286 7 5.35714286 7 9 C4.36 9 1.72 9 -1 9 C-1.09765625 2.84765625 -1.09765625 2.84765625 -1 1 C-0.67 0.67 -0.34 0.34 0 0 Z " fill="#EA3F41" transform="translate(83,65)"/>
<path d="M0 0 C0.99 0.33 1.98 0.66 3 1 C3 2.32 3 3.64 3 5 C5.31 5 7.62 5 10 5 C10 3.35 10 1.7 10 0 C10.99 0.33 11.98 0.66 13 1 C13 2.32 13 3.64 13 5 C9.69005287 6.65497356 6.00877 6.10084335 2.375 6.0625 C1.57320312 6.05798828 0.77140625 6.05347656 -0.0546875 6.04882812 C-2.03649006 6.03703168 -4.01825433 6.01909605 -6 6 C-6 5.67 -6 5.34 -6 5 C-4.02 5 -2.04 5 0 5 C0 3.35 0 1.7 0 0 Z " fill="#535353" transform="translate(128,197)"/>
<path d="M0 0 C0 3 0 3 -1.79296875 5.12109375 C-2.97826172 6.26771484 -2.97826172 6.26771484 -4.1875 7.4375 C-5.00476563 8.22898438 -5.82203125 9.02046875 -6.6640625 9.8359375 C-9.0212043 12.01964412 -11.41855036 14.08473091 -14 16 C-14.66 15.67 -15.32 15.34 -16 15 C-11.70328082 10.5824356 -7.27195049 6.40403459 -2.6015625 2.3828125 C-1.71147181 1.61429517 -0.83152881 0.83152881 0 0 Z " fill="#CD3235" transform="translate(200,176)"/>
<path d="M0 0 C3.16115776 1.36983503 3.9927092 1.9890638 6 5 C4.68 5 3.36 5 2 5 C2.33 6.32 2.66 7.64 3 9 C1.02 7.35 -0.96 5.7 -3 4 C-2.34 3.67 -1.68 3.34 -1 3 C-0.67 2.01 -0.34 1.02 0 0 Z " fill="#DB393D" transform="translate(134,82)"/>
<path d="M0 0 C1.32 0.33 2.64 0.66 4 1 C4.6875 2.8125 4.6875 2.8125 5 5 C3.5625 6.75 3.5625 6.75 2 8 C0.23537317 4.91190305 0 3.76687864 0 0 Z " fill="#F0383E" transform="translate(127,92)"/>
<path d="M0 0 C0 3 0 3 -1 5 C-0.67 5.99 -0.34 6.98 0 8 C-0.99 8.495 -0.99 8.495 -2 9 C-2.33 8.34 -2.66 7.68 -3 7 C-4.98 7.66 -6.96 8.32 -9 9 C-6.31941902 5.42589203 -3.57410797 2.68058098 0 0 Z " fill="#D53136" transform="translate(153,219)"/>
<path d="M0 0 C2 6 2 6 2 9 C1.34 9 0.68 9 0 9 C-0.33 9.66 -0.66 10.32 -1 11 C-1.66 10.34 -2.32 9.68 -3 9 C-2.6442194 5.62008426 -1.64284201 2.95711562 0 0 Z " fill="#8C3335" transform="translate(122,75)"/>
<path d="M0 0 C2.75 0.25 2.75 0.25 5 1 C3.35 2.65 1.7 4.3 0 6 C-1.32 5.34 -2.64 4.68 -4 4 C-2.3125 1.9375 -2.3125 1.9375 0 0 Z " fill="#EE3039" transform="translate(171,204)"/>
<path d="M0 0 C0.66 0.33 1.32 0.66 2 1 C1.75 3.375 1.75 3.375 1 6 C-1.0625 7.3125 -1.0625 7.3125 -3 8 C-3.75 6.25 -3.75 6.25 -4 4 C-2.0625 1.75 -2.0625 1.75 0 0 Z " fill="#EF373D" transform="translate(181,195)"/>
<path d="M0 0 C0 0.99 0 1.98 0 3 C-4.89277899 7.09628009 -4.89277899 7.09628009 -8.875 6.75 C-9.57625 6.5025 -10.2775 6.255 -11 6 C-10.34 5.01 -9.68 4.02 -9 3 C-7.68 3 -6.36 3 -5 3 C-2.28873616 1.57378316 -2.28873616 1.57378316 0 0 Z " fill="#AA2828" transform="translate(151,106)"/>
<path d="M0 0 C0.33 0 0.66 0 1 0 C1.12117188 0.89203125 1.24234375 1.7840625 1.3671875 2.703125 C1.53476563 3.87359375 1.70234375 5.0440625 1.875 6.25 C2.03742188 7.41015625 2.19984375 8.5703125 2.3671875 9.765625 C2.91820431 12.58193313 3.55796482 14.55217557 5 17 C2 16 2 16 0 13 C-0.1953125 9.86328125 -0.1953125 9.86328125 -0.125 6.3125 C-0.09792969 4.54326172 -0.09792969 4.54326172 -0.0703125 2.73828125 C-0.04710938 1.83464844 -0.02390625 0.93101563 0 0 Z " fill="#58241C" transform="translate(102,89)"/>
<path d="M0 0 C3.04105488 1.52052744 4.71466648 2.48121179 6.375 5.5 C7 8 7 8 6 11 C4.9944239 9.54550599 3.99569565 8.08627557 3 6.625 C2.443125 5.81289062 1.88625 5.00078125 1.3125 4.1640625 C0 2 0 2 0 0 Z " fill="#97272B" transform="translate(126,108)"/>
<path d="M0 0 C0.99 1.485 0.99 1.485 2 3 C4.05925139 3.72382467 4.05925139 3.72382467 6 4 C5.67 5.32 5.34 6.64 5 8 C5 7.34 5 6.68 5 6 C3.02 6.99 3.02 6.99 1 8 C0.67 5.36 0.34 2.72 0 0 Z " fill="#E0393B" transform="translate(80,59)"/>
<path d="M0 0 C0 1.65 0 3.3 0 5 C-1.32 5 -2.64 5 -4 5 C-4 3.68 -4 2.36 -4 1 C-2 0 -2 0 0 0 Z " fill="#B6393D" transform="translate(116,39)"/>
<path d="M0 0 C0.99 0.99 1.98 1.98 3 3 C3.66 2.34 4.32 1.68 5 1 C5 1.99 5 2.98 5 4 C3.02 4.99 3.02 4.99 1 6 C0.34 5.34 -0.32 4.68 -1 4 C-0.625 1.875 -0.625 1.875 0 0 Z " fill="#A92A2E" transform="translate(127,96)"/>
</svg>
